{
    "asset" : {
        "generator" : "Khronos glTF Blender I/O v1.7.33",
        "version" : "2.0"
    },
    "scene" : 0,
    "scenes" : [
        {
            "name" : "Charizard___Pokemon_GO",
            "nodes" : [
                2
            ]
        }
    ],
    "nodes" : [
        {
            "mesh" : 0,
            "name" : "lizardon_mat_0_lizardon_mat_0",
            "scale" : [
                0.02500000037252903,
                0.02500000037252903,
                0.02500000037252903
            ]
        },
        {
            "mesh" : 1,
            "name" : "lizardon_mat_1_lizardon_mat_1"
        },
        {
            "children" : [
                0,
                1
            ],
            "name" : "BR_Charizard",
            "rotation" : [
                0.06252053380012512,
                0,
                0,
                0.9980437755584717
            ]
        }
    ],
    "materials" : [
        {
            "doubleSided" : true,
            "name" : "mat_0",
            "pbrMetallicRoughness" : {
                "baseColorFactor" : [
                    0.686274528503418,
                    0.686274528503418,
                    0.686274528503418,
                    1
                ],
                "metallicFactor" : 0,
                "roughnessFactor" : 0.5
            }
        },
        {
            "doubleSided" : true,
            "name" : "mat_1",
            "pbrMetallicRoughness" : {
                "baseColorFactor" : [
                    0.686274528503418,
                    0.686274528503418,
                    0.686274528503418,
                    1
                ],
                "metallicFactor" : 0,
                "roughnessFactor" : 0.5
            }
        }
    ],
    "meshes" : [
        {
            "name" : "lizardon_mat_0_lizardon_mat_0",
            "primitives" : [
                {
                    "attributes" : {
                        "POSITION" : 0,
                        "NORMAL" : 1,
                        "TEXCOORD_0" : 2
                    },
                    "indices" : 3,
                    "material" : 0
                }
            ]
        },
        {
            "name" : "lizardon_mat_1_lizardon_mat_1",
            "primitives" : [
                {
                    "attributes" : {
                        "POSITION" : 4,
                        "NORMAL" : 5,
                        "TEXCOORD_0" : 6
                    },
                    "indices" : 7,
                    "material" : 1
                }
            ]
        }
    ],
    "accessors" : [
        {
            "bufferView" : 0,
            "componentType" : 5126,
            "count" : 770,
            "max" : [
                11.837499618530273,
                16.296499252319336,
                8.952340126037598
            ],
            "min" : [
                -11.837499618530273,
                -0.07364600151777267,
                -20.086999893188477
            ],
            "type" : "VEC3"
        },
        {
            "bufferView" : 1,
            "componentType" : 5126,
            "count" : 770,
            "type" : "VEC3"
        },
        {
            "bufferView" : 2,
            "componentType" : 5126,
            "count" : 770,
            "type" : "VEC2"
        },
        {
            "bufferView" : 3,
            "componentType" : 5123,
            "count" : 3402,
            "type" : "SCALAR"
        },
        {
            "bufferView" : 4,
            "componentType" : 5126,
            "count" : 12,
            "max" : [
                1.2030800580978394,
                13.911700248718262,
                7.731959819793701
            ],
            "min" : [
                -1.2030800580978394,
                12.000200271606445,
                5.855989933013916
            ],
            "type" : "VEC3"
        },
        {
            "bufferView" : 5,
            "componentType" : 5126,
            "count" : 12,
            "type" : "VEC3"
        },
        {
            "bufferView" : 6,
            "componentType" : 5126,
            "count" : 12,
            "type" : "VEC2"
        },
        {
            "bufferView" : 7,
            "componentType" : 5123,
            "count" : 18,
            "type" : "SCALAR"
        }
    ],
    "bufferViews" : [
        {
            "buffer" : 0,
            "byteLength" : 9240,
            "byteOffset" : 0
        },
        {
            "buffer" : 0,
            "byteLength" : 9240,
            "byteOffset" : 9240
        },
        {
            "buffer" : 0,
            "byteLength" : 6160,
            "byteOffset" : 18480
        },
        {
            "buffer" : 0,
            "byteLength" : 6804,
            "byteOffset" : 24640
        },
        {
            "buffer" : 0,
            "byteLength" : 144,
            "byteOffset" : 31444
        },
        {
            "buffer" : 0,
            "byteLength" : 144,
            "byteOffset" : 31588
        },
        {
            "buffer" : 0,
            "byteLength" : 96,
            "byteOffset" : 31732
        },
        {
            "buffer" : 0,
            "byteLength" : 36,
            "byteOffset" : 31828
        }
    ],
    "buffers" : [
        {
            "byteLength" : 31864,
            "uri" : "data:application/octet-stream;base64,"
        }
    ]
}
