{
    "asset" : {
        "generator" : "Khronos glTF Blender I/O v1.7.33",
        "version" : "2.0"
    },
    "scene" : 0,
    "scenes" : [
        {
            "name" : "Scene",
            "nodes" : [
                0
            ]
        }
    ],
    "nodes" : [
        {
            "mesh" : 0,
            "name" : "Ingenious Hillar-Stantia (1)",
            "scale" : [
                0.009999999776482582,
                0.009999999776482582,
                0.009999999776482582
            ]
        }
    ],
    "meshes" : [
        {
            "name" : "Ingenious Hillar-Stantia (1)",
            "primitives" : [
                {
                    "attributes" : {
                        "POSITION" : 0,
                        "NORMAL" : 1
                    },
                    "indices" : 2
                }
            ]
        }
    ],
    "accessors" : [
        {
            "bufferView" : 0,
            "componentType" : 5126,
            "count" : 22377,
            "max" : [
                9,
                25,
                13
            ],
            "min" : [
                -11,
                0,
                -7
            ],
            "type" : "VEC3"
        },
        {
            "bufferView" : 1,
            "componentType" : 5126,
            "count" : 22377,
            "type" : "VEC3"
        },
        {
            "bufferView" : 2,
            "componentType" : 5123,
            "count" : 23178,
            "type" : "SCALAR"
        }
    ],
    "bufferViews" : [
        {
            "buffer" : 0,
            "byteLength" : 268524,
            "byteOffset" : 0
        },
        {
            "buffer" : 0,
            "byteLength" : 268524,
            "byteOffset" : 268524
        },
        {
            "buffer" : 0,
            "byteLength" : 46356,
            "byteOffset" : 537048
        }
    ],
    "buffers" : [
        {
            "byteLength" : 583404,
            "uri" : "data:application/octet-stream;base64,"
        }
    ]
}
