{
    "asset" : {
        "generator" : "Khronos glTF Blender I/O v3.3.27",
        "version" : "2.0"
    },
    "scene" : 0,
    "scenes" : [
        {
            "name" : "Scene",
            "nodes" : [
                0
            ]
        }
    ],
    "nodes" : [
        {
            "mesh" : 0,
            "name" : "Powerful Snicket-Luulia",
            "scale" : [
                0.06999994814395905,
                0.06999994814395905,
                0.06999994814395905
            ]
        }
    ],
    "meshes" : [
        {
            "name" : "Powerful Snicket-Luulia",
            "primitives" : [
                {
                    "attributes" : {
                        "POSITION" : 0,
                        "NORMAL" : 1
                    },
                    "indices" : 2
                }
            ]
        }
    ],
    "accessors" : [
        {
            "bufferView" : 0,
            "componentType" : 5126,
            "count" : 67283,
            "max" : [
                27,
                25,
                -9
            ],
            "min" : [
                -36,
                0,
                -30
            ],
            "type" : "VEC3"
        },
        {
            "bufferView" : 1,
            "componentType" : 5126,
            "count" : 67283,
            "type" : "VEC3"
        },
        {
            "bufferView" : 2,
            "componentType" : 5125,
            "count" : 70020,
            "type" : "SCALAR"
        }
    ],
    "bufferViews" : [
        {
            "buffer" : 0,
            "byteLength" : 807396,
            "byteOffset" : 0,
            "target" : 34962
        },
        {
            "buffer" : 0,
            "byteLength" : 807396,
            "byteOffset" : 807396,
            "target" : 34962
        },
        {
            "buffer" : 0,
            "byteLength" : 280080,
            "byteOffset" : 1614792,
            "target" : 34963
        }
    ],
    "buffers" : [
        {
            "byteLength" : 1894872,
            "uri" : "data:application/octet-stream;base64,"
        }
    ]
}
