{
    "asset" : {
        "generator" : "Khronos glTF Blender I/O v1.7.33",
        "version" : "2.0"
    },
    "scene" : 0,
    "scenes" : [
        {
            "name" : "Scene",
            "nodes" : [
                0
            ]
        }
    ],
    "nodes" : [
        {
            "mesh" : 0,
            "name" : "Cylinder.003",
            "rotation" : [
                0.7071068286895752,
                0,
                0,
                0.7071068286895752
            ],
            "scale" : [
                0.25,
                0.25,
                0.25
            ],
            "translation" : [
                0.004436947405338287,
                0.14108732342720032,
                0.0023258328437805176
            ]
        }
    ],
    "materials" : [
        {
            "doubleSided" : true,
            "name" : "desk_lamp",
            "pbrMetallicRoughness" : {}
        }
    ],
    "meshes" : [
        {
            "name" : "Cylinder.011",
            "primitives" : [
                {
                    "attributes" : {
                        "POSITION" : 0,
                        "NORMAL" : 1,
                        "TEXCOORD_0" : 2
                    },
                    "indices" : 3,
                    "material" : 0
                }
            ]
        }
    ],
    "accessors" : [
        {
            "bufferView" : 0,
            "componentType" : 5126,
            "count" : 2466,
            "max" : [
                0.0655328631401062,
                0.07770770788192749,
                0.14099633693695068
            ],
            "min" : [
                -0.04918201267719269,
                -0.0867510661482811,
                -0.06336235255002975
            ],
            "type" : "VEC3"
        },
        {
            "bufferView" : 1,
            "componentType" : 5126,
            "count" : 2466,
            "type" : "VEC3"
        },
        {
            "bufferView" : 2,
            "componentType" : 5126,
            "count" : 2466,
            "type" : "VEC2"
        },
        {
            "bufferView" : 3,
            "componentType" : 5123,
            "count" : 9744,
            "type" : "SCALAR"
        }
    ],
    "bufferViews" : [
        {
            "buffer" : 0,
            "byteLength" : 29592,
            "byteOffset" : 0
        },
        {
            "buffer" : 0,
            "byteLength" : 29592,
            "byteOffset" : 29592
        },
        {
            "buffer" : 0,
            "byteLength" : 19728,
            "byteOffset" : 59184
        },
        {
            "buffer" : 0,
            "byteLength" : 19488,
            "byteOffset" : 78912
        }
    ],
    "buffers" : [
        {
            "byteLength" : 98400,
            "uri" : "data:application/octet-stream;base64,"
        }
    ]
}
