{
    "asset" : {
        "generator" : "Khronos glTF Blender I/O v1.7.33",
        "version" : "2.0"
    },
    "scene" : 0,
    "scenes" : [
        {
            "name" : "Scene",
            "nodes" : [
                0,
                1,
                2,
                3,
                4
            ]
        }
    ],
    "nodes" : [
        {
            "mesh" : 0,
            "name" : "Golden Retriever figure_obj",
            "rotation" : [
                0.7071068286895752,
                0,
                0,
                0.7071067094802856
            ],
            "scale" : [
                0.05000000074505806,
                0.05000000074505806,
                0.05000000074505806
            ]
        },
        {
            "mesh" : 1,
            "name" : "Golden Retriever figure_obj.001",
            "rotation" : [
                0.7071068286895752,
                0,
                0,
                0.7071067094802856
            ]
        },
        {
            "mesh" : 2,
            "name" : "Golden Retriever figure_obj.002",
            "rotation" : [
                0.7071068286895752,
                0,
                0,
                0.7071067094802856
            ]
        },
        {
            "mesh" : 3,
            "name" : "Golden Retriever figure_obj.004",
            "rotation" : [
                0.7071068286895752,
                0,
                0,
                0.7071067094802856
            ]
        },
        {
            "mesh" : 4,
            "name" : "Golden Retriever figure_obj.005",
            "rotation" : [
                0.7071068286895752,
                0,
                0,
                0.7071067094802856
            ]
        }
    ],
    "materials" : [
        {
            "doubleSided" : true,
            "name" : "mia_material_x1",
            "pbrMetallicRoughness" : {
                "baseColorFactor" : [
                    0.800000011920929,
                    0.800000011920929,
                    0.800000011920929,
                    1
                ],
                "metallicFactor" : 0,
                "roughnessFactor" : 0.5
            }
        },
        {
            "doubleSided" : true,
            "name" : "mia_material_x1.001",
            "pbrMetallicRoughness" : {
                "baseColorFactor" : [
                    0.800000011920929,
                    0.800000011920929,
                    0.800000011920929,
                    1
                ],
                "metallicFactor" : 0,
                "roughnessFactor" : 0.5
            }
        },
        {
            "doubleSided" : true,
            "name" : "mia_material_x1.002",
            "pbrMetallicRoughness" : {
                "baseColorFactor" : [
                    0.800000011920929,
                    0.800000011920929,
                    0.800000011920929,
                    1
                ],
                "metallicFactor" : 0,
                "roughnessFactor" : 0.5
            }
        },
        {
            "doubleSided" : true,
            "name" : "mia_material_x1.004",
            "pbrMetallicRoughness" : {
                "baseColorFactor" : [
                    0.800000011920929,
                    0.800000011920929,
                    0.800000011920929,
                    1
                ],
                "metallicFactor" : 0,
                "roughnessFactor" : 0.5
            }
        },
        {
            "doubleSided" : true,
            "name" : "mia_material_x1.005",
            "pbrMetallicRoughness" : {
                "baseColorFactor" : [
                    0.800000011920929,
                    0.800000011920929,
                    0.800000011920929,
                    1
                ],
                "metallicFactor" : 0,
                "roughnessFactor" : 0.5
            }
        }
    ],
    "meshes" : [
        {
            "name" : "Golden Retriever figure_obj",
            "primitives" : [
                {
                    "attributes" : {
                        "POSITION" : 0,
                        "NORMAL" : 1,
                        "TEXCOORD_0" : 2
                    },
                    "indices" : 3,
                    "material" : 0
                }
            ]
        },
        {
            "name" : "Golden Retriever figure_obj.001",
            "primitives" : [
                {
                    "attributes" : {
                        "POSITION" : 4,
                        "NORMAL" : 5,
                        "TEXCOORD_0" : 6
                    },
                    "indices" : 3,
                    "material" : 1
                }
            ]
        },
        {
            "name" : "Golden Retriever figure_obj.002",
            "primitives" : [
                {
                    "attributes" : {
                        "POSITION" : 7,
                        "NORMAL" : 8,
                        "TEXCOORD_0" : 9
                    },
                    "indices" : 3,
                    "material" : 2
                }
            ]
        },
        {
            "name" : "Golden Retriever figure_obj.004",
            "primitives" : [
                {
                    "attributes" : {
                        "POSITION" : 10,
                        "NORMAL" : 11,
                        "TEXCOORD_0" : 12
                    },
                    "indices" : 3,
                    "material" : 3
                }
            ]
        },
        {
            "name" : "Golden Retriever figure_obj.005",
            "primitives" : [
                {
                    "attributes" : {
                        "POSITION" : 13,
                        "NORMAL" : 14,
                        "TEXCOORD_0" : 15
                    },
                    "indices" : 3,
                    "material" : 4
                }
            ]
        }
    ],
    "accessors" : [
        {
            "bufferView" : 0,
            "componentType" : 5126,
            "count" : 831,
            "max" : [
                38.54761505126953,
                80.90794372558594,
                35.685997009277344
            ],
            "min" : [
                -69.52314758300781,
                -15.304622650146484,
                -22.098501205444336
            ],
            "type" : "VEC3"
        },
        {
            "bufferView" : 1,
            "componentType" : 5126,
            "count" : 831,
            "type" : "VEC3"
        },
        {
            "bufferView" : 2,
            "componentType" : 5126,
            "count" : 831,
            "type" : "VEC2"
        },
        {
            "bufferView" : 3,
            "componentType" : 5123,
            "count" : 1950,
            "type" : "SCALAR"
        },
        {
            "bufferView" : 4,
            "componentType" : 5126,
            "count" : 831,
            "max" : [
                16.793100357055664,
                76.59602355957031,
                57.07027816772461
            ],
            "min" : [
                -16.793100357055664,
                0.02133999951183796,
                -60.11096954345703
            ],
            "type" : "VEC3"
        },
        {
            "bufferView" : 5,
            "componentType" : 5126,
            "count" : 831,
            "type" : "VEC3"
        },
        {
            "bufferView" : 6,
            "componentType" : 5126,
            "count" : 831,
            "type" : "VEC2"
        },
        {
            "bufferView" : 7,
            "componentType" : 5126,
            "count" : 831,
            "max" : [
                16.793100357055664,
                76.59602355957031,
                57.07027816772461
            ],
            "min" : [
                -16.793100357055664,
                0.02133999951183796,
                -60.11096954345703
            ],
            "type" : "VEC3"
        },
        {
            "bufferView" : 8,
            "componentType" : 5126,
            "count" : 831,
            "type" : "VEC3"
        },
        {
            "bufferView" : 9,
            "componentType" : 5126,
            "count" : 831,
            "type" : "VEC2"
        },
        {
            "bufferView" : 10,
            "componentType" : 5126,
            "count" : 831,
            "max" : [
                16.793100357055664,
                76.59602355957031,
                57.07027816772461
            ],
            "min" : [
                -16.793100357055664,
                0.02133999951183796,
                -60.11096954345703
            ],
            "type" : "VEC3"
        },
        {
            "bufferView" : 11,
            "componentType" : 5126,
            "count" : 831,
            "type" : "VEC3"
        },
        {
            "bufferView" : 12,
            "componentType" : 5126,
            "count" : 831,
            "type" : "VEC2"
        },
        {
            "bufferView" : 13,
            "componentType" : 5126,
            "count" : 831,
            "max" : [
                16.793100357055664,
                76.59602355957031,
                57.07027816772461
            ],
            "min" : [
                -16.793100357055664,
                0.02133999951183796,
                -60.11096954345703
            ],
            "type" : "VEC3"
        },
        {
            "bufferView" : 14,
            "componentType" : 5126,
            "count" : 831,
            "type" : "VEC3"
        },
        {
            "bufferView" : 15,
            "componentType" : 5126,
            "count" : 831,
            "type" : "VEC2"
        }
    ],
    "bufferViews" : [
        {
            "buffer" : 0,
            "byteLength" : 9972,
            "byteOffset" : 0
        },
        {
            "buffer" : 0,
            "byteLength" : 9972,
            "byteOffset" : 9972
        },
        {
            "buffer" : 0,
            "byteLength" : 6648,
            "byteOffset" : 19944
        },
        {
            "buffer" : 0,
            "byteLength" : 3900,
            "byteOffset" : 26592
        },
        {
            "buffer" : 0,
            "byteLength" : 9972,
            "byteOffset" : 30492
        },
        {
            "buffer" : 0,
            "byteLength" : 9972,
            "byteOffset" : 40464
        },
        {
            "buffer" : 0,
            "byteLength" : 6648,
            "byteOffset" : 50436
        },
        {
            "buffer" : 0,
            "byteLength" : 9972,
            "byteOffset" : 57084
        },
        {
            "buffer" : 0,
            "byteLength" : 9972,
            "byteOffset" : 67056
        },
        {
            "buffer" : 0,
            "byteLength" : 6648,
            "byteOffset" : 77028
        },
        {
            "buffer" : 0,
            "byteLength" : 9972,
            "byteOffset" : 83676
        },
        {
            "buffer" : 0,
            "byteLength" : 9972,
            "byteOffset" : 93648
        },
        {
            "buffer" : 0,
            "byteLength" : 6648,
            "byteOffset" : 103620
        },
        {
            "buffer" : 0,
            "byteLength" : 9972,
            "byteOffset" : 110268
        },
        {
            "buffer" : 0,
            "byteLength" : 9972,
            "byteOffset" : 120240
        },
        {
            "buffer" : 0,
            "byteLength" : 6648,
            "byteOffset" : 130212
        }
    ],
    "buffers" : [
        {
            "byteLength" : 136860,
            "uri" : "data:application/octet-stream;base64,"
        }
    ]
}
