{
    "asset" : {
        "copyright" : "Carter",
        "generator" : "Khronos glTF Blender I/O v1.7.33",
        "version" : "2.0"
    },
    "scene" : 0,
    "scenes" : [
        {
            "name" : "Scene",
            "nodes" : [
                0
            ]
        }
    ],
    "nodes" : [
        {
            "mesh" : 0,
            "name" : "Patrick",
            "rotation" : [
                0.7071068286895752,
                0,
                0,
                0.7071067094802856
            ],
            "scale" : [
                0.5,
                0.5,
                0.5
            ]
        }
    ],
    "materials" : [
        {
            "doubleSided" : true,
            "name" : "Brows_Color.png",
            "pbrMetallicRoughness" : {
                "baseColorTexture" : {
                    "index" : 0
                },
                "metallicFactor" : 0
            }
        },
        {
            "doubleSided" : true,
            "name" : "Eyes_Color.png",
            "pbrMetallicRoughness" : {
                "baseColorTexture" : {
                    "index" : 1
                },
                "metallicFactor" : 0,
                "roughnessFactor" : 0.6732679605484009
            }
        },
        {
            "doubleSided" : true,
            "name" : "Pupils_Color.png",
            "pbrMetallicRoughness" : {
                "baseColorTexture" : {
                    "index" : 2
                },
                "metallicFactor" : 0,
                "roughnessFactor" : 0.6732679605484009
            }
        },
        {
            "doubleSided" : true,
            "name" : "Pants_Flowers.png",
            "pbrMetallicRoughness" : {
                "baseColorTexture" : {
                    "index" : 3
                },
                "metallicFactor" : 0
            }
        },
        {
            "doubleSided" : true,
            "name" : "Skin_skin.png",
            "pbrMetallicRoughness" : {
                "baseColorTexture" : {
                    "index" : 4
                },
                "metallicFactor" : 0
            }
        },
        {
            "doubleSided" : true,
            "name" : "Mouth",
            "pbrMetallicRoughness" : {
                "baseColorTexture" : {
                    "index" : 5
                },
                "metallicFactor" : 0
            }
        }
    ],
    "meshes" : [
        {
            "name" : "Patrick",
            "primitives" : [
                {
                    "attributes" : {
                        "POSITION" : 0,
                        "NORMAL" : 1,
                        "TANGENT" : 2,
                        "TEXCOORD_0" : 3
                    },
                    "indices" : 4,
                    "material" : 0
                },
                {
                    "attributes" : {
                        "POSITION" : 5,
                        "NORMAL" : 6,
                        "TANGENT" : 7,
                        "TEXCOORD_0" : 8
                    },
                    "indices" : 9,
                    "material" : 1
                },
                {
                    "attributes" : {
                        "POSITION" : 10,
                        "NORMAL" : 11,
                        "TANGENT" : 12,
                        "TEXCOORD_0" : 13
                    },
                    "indices" : 14,
                    "material" : 2
                },
                {
                    "attributes" : {
                        "POSITION" : 15,
                        "NORMAL" : 16,
                        "TANGENT" : 17,
                        "TEXCOORD_0" : 18
                    },
                    "indices" : 19,
                    "material" : 3
                },
                {
                    "attributes" : {
                        "POSITION" : 20,
                        "NORMAL" : 21,
                        "TANGENT" : 22,
                        "TEXCOORD_0" : 23
                    },
                    "indices" : 24,
                    "material" : 4
                },
                {
                    "attributes" : {
                        "POSITION" : 25,
                        "NORMAL" : 26,
                        "TANGENT" : 27,
                        "TEXCOORD_0" : 28
                    },
                    "indices" : 29,
                    "material" : 5
                }
            ]
        }
    ],
    "textures" : [
        {
            "sampler" : 0,
            "source" : 0
        },
        {
            "sampler" : 0,
            "source" : 0
        },
        {
            "sampler" : 0,
            "source" : 0
        },
        {
            "sampler" : 0,
            "source" : 1
        },
        {
            "sampler" : 0,
            "source" : 2
        },
        {
            "sampler" : 0,
            "source" : 0
        }
    ],
    "images" : [
        {
            "bufferView" : 5,
            "mimeType" : "image/png",
            "name" : "Color"
        },
        {
            "bufferView" : 21,
            "mimeType" : "image/png",
            "name" : "Flowers"
        },
        {
            "bufferView" : 27,
            "mimeType" : "image/png",
            "name" : "Skin_Patrick"
        }
    ],
    "accessors" : [
        {
            "bufferView" : 0,
            "componentType" : 5126,
            "count" : 16,
            "max" : [
                0.44721901416778564,
                0.6068854331970215,
                -4.944443702697754
            ],
            "min" : [
                -0.4300200045108795,
                0.6068854331970215,
                -5.203059673309326
            ],
            "type" : "VEC3"
        },
        {
            "bufferView" : 1,
            "componentType" : 5126,
            "count" : 16,
            "type" : "VEC3"
        },
        {
            "bufferView" : 2,
            "componentType" : 5126,
            "count" : 16,
            "type" : "VEC4"
        },
        {
            "bufferView" : 3,
            "componentType" : 5126,
            "count" : 16,
            "type" : "VEC2"
        },
        {
            "bufferView" : 4,
            "componentType" : 5123,
            "count" : 36,
            "type" : "SCALAR"
        },
        {
            "bufferView" : 6,
            "componentType" : 5126,
            "count" : 722,
            "max" : [
                0.48697999119758606,
                0.6921263933181763,
                -4.148220539093018
            ],
            "min" : [
                -0.48697999119758606,
                0.20786739885807037,
                -4.909658432006836
            ],
            "type" : "VEC3"
        },
        {
            "bufferView" : 7,
            "componentType" : 5126,
            "count" : 722,
            "type" : "VEC3"
        },
        {
            "bufferView" : 8,
            "componentType" : 5126,
            "count" : 722,
            "type" : "VEC4"
        },
        {
            "bufferView" : 9,
            "componentType" : 5126,
            "count" : 722,
            "type" : "VEC2"
        },
        {
            "bufferView" : 10,
            "componentType" : 5123,
            "count" : 4200,
            "type" : "SCALAR"
        },
        {
            "bufferView" : 11,
            "componentType" : 5126,
            "count" : 82,
            "max" : [
                0.3024199903011322,
                0.6970034241676331,
                -4.430527687072754
            ],
            "min" : [
                -0.3024199903011322,
                0.6797953844070435,
                -4.661613464355469
            ],
            "type" : "VEC3"
        },
        {
            "bufferView" : 12,
            "componentType" : 5126,
            "count" : 82,
            "type" : "VEC3"
        },
        {
            "bufferView" : 13,
            "componentType" : 5126,
            "count" : 82,
            "type" : "VEC4"
        },
        {
            "bufferView" : 14,
            "componentType" : 5126,
            "count" : 82,
            "type" : "VEC2"
        },
        {
            "bufferView" : 15,
            "componentType" : 5123,
            "count" : 360,
            "type" : "SCALAR"
        },
        {
            "bufferView" : 16,
            "componentType" : 5126,
            "count" : 350,
            "max" : [
                1.4115920066833496,
                1.2659554481506348,
                -0.6554365158081055
            ],
            "min" : [
                -1.4115920066833496,
                -0.8472476005554199,
                -2.550727367401123
            ],
            "type" : "VEC3"
        },
        {
            "bufferView" : 17,
            "componentType" : 5126,
            "count" : 350,
            "type" : "VEC3"
        },
        {
            "bufferView" : 18,
            "componentType" : 5126,
            "count" : 350,
            "type" : "VEC4"
        },
        {
            "bufferView" : 19,
            "componentType" : 5126,
            "count" : 350,
            "type" : "VEC2"
        },
        {
            "bufferView" : 20,
            "componentType" : 5123,
            "count" : 1440,
            "type" : "SCALAR"
        },
        {
            "bufferView" : 22,
            "componentType" : 5126,
            "count" : 520,
            "max" : [
                2.7564070224761963,
                1.185962438583374,
                -0.25795841217041016
            ],
            "min" : [
                -2.7564070224761963,
                -0.7780795693397522,
                -6.456081390380859
            ],
            "type" : "VEC3"
        },
        {
            "bufferView" : 23,
            "componentType" : 5126,
            "count" : 520,
            "type" : "VEC3"
        },
        {
            "bufferView" : 24,
            "componentType" : 5126,
            "count" : 520,
            "type" : "VEC4"
        },
        {
            "bufferView" : 25,
            "componentType" : 5126,
            "count" : 520,
            "type" : "VEC2"
        },
        {
            "bufferView" : 26,
            "componentType" : 5123,
            "count" : 2736,
            "type" : "SCALAR"
        },
        {
            "bufferView" : 28,
            "componentType" : 5126,
            "count" : 46,
            "max" : [
                0.6433719992637634,
                0.6956824064254761,
                -3.777597427368164
            ],
            "min" : [
                -0.6433719992637634,
                0.11651139706373215,
                -4.07432746887207
            ],
            "type" : "VEC3"
        },
        {
            "bufferView" : 29,
            "componentType" : 5126,
            "count" : 46,
            "type" : "VEC3"
        },
        {
            "bufferView" : 30,
            "componentType" : 5126,
            "count" : 46,
            "type" : "VEC4"
        },
        {
            "bufferView" : 31,
            "componentType" : 5126,
            "count" : 46,
            "type" : "VEC2"
        },
        {
            "bufferView" : 32,
            "componentType" : 5123,
            "count" : 192,
            "type" : "SCALAR"
        }
    ],
    "bufferViews" : [
        {
            "buffer" : 0,
            "byteLength" : 192,
            "byteOffset" : 0
        },
        {
            "buffer" : 0,
            "byteLength" : 192,
            "byteOffset" : 192
        },
        {
            "buffer" : 0,
            "byteLength" : 256,
            "byteOffset" : 384
        },
        {
            "buffer" : 0,
            "byteLength" : 128,
            "byteOffset" : 640
        },
        {
            "buffer" : 0,
            "byteLength" : 72,
            "byteOffset" : 768
        },
        {
            "buffer" : 0,
            "byteLength" : 1404,
            "byteOffset" : 840
        },
        {
            "buffer" : 0,
            "byteLength" : 8664,
            "byteOffset" : 2244
        },
        {
            "buffer" : 0,
            "byteLength" : 8664,
            "byteOffset" : 10908
        },
        {
            "buffer" : 0,
            "byteLength" : 11552,
            "byteOffset" : 19572
        },
        {
            "buffer" : 0,
            "byteLength" : 5776,
            "byteOffset" : 31124
        },
        {
            "buffer" : 0,
            "byteLength" : 8400,
            "byteOffset" : 36900
        },
        {
            "buffer" : 0,
            "byteLength" : 984,
            "byteOffset" : 45300
        },
        {
            "buffer" : 0,
            "byteLength" : 984,
            "byteOffset" : 46284
        },
        {
            "buffer" : 0,
            "byteLength" : 1312,
            "byteOffset" : 47268
        },
        {
            "buffer" : 0,
            "byteLength" : 656,
            "byteOffset" : 48580
        },
        {
            "buffer" : 0,
            "byteLength" : 720,
            "byteOffset" : 49236
        },
        {
            "buffer" : 0,
            "byteLength" : 4200,
            "byteOffset" : 49956
        },
        {
            "buffer" : 0,
            "byteLength" : 4200,
            "byteOffset" : 54156
        },
        {
            "buffer" : 0,
            "byteLength" : 5600,
            "byteOffset" : 58356
        },
        {
            "buffer" : 0,
            "byteLength" : 2800,
            "byteOffset" : 63956
        },
        {
            "buffer" : 0,
            "byteLength" : 2880,
            "byteOffset" : 66756
        },
        {
            "buffer" : 0,
            "byteLength" : 56428,
            "byteOffset" : 69636
        },
        {
            "buffer" : 0,
            "byteLength" : 6240,
            "byteOffset" : 126064
        },
        {
            "buffer" : 0,
            "byteLength" : 6240,
            "byteOffset" : 132304
        },
        {
            "buffer" : 0,
            "byteLength" : 8320,
            "byteOffset" : 138544
        },
        {
            "buffer" : 0,
            "byteLength" : 4160,
            "byteOffset" : 146864
        },
        {
            "buffer" : 0,
            "byteLength" : 5472,
            "byteOffset" : 151024
        },
        {
            "buffer" : 0,
            "byteLength" : 10597,
            "byteOffset" : 156496
        },
        {
            "buffer" : 0,
            "byteLength" : 552,
            "byteOffset" : 167096
        },
        {
            "buffer" : 0,
            "byteLength" : 552,
            "byteOffset" : 167648
        },
        {
            "buffer" : 0,
            "byteLength" : 736,
            "byteOffset" : 168200
        },
        {
            "buffer" : 0,
            "byteLength" : 368,
            "byteOffset" : 168936
        },
        {
            "buffer" : 0,
            "byteLength" : 384,
            "byteOffset" : 169304
        }
    ],
    "samplers" : [
        {
            "magFilter" : 9729,
            "minFilter" : 9987
        }
    ],
    "buffers" : [
        {
            "byteLength" : 169688,
            "uri" : "data:application/octet-stream;base64,"
        }
    ]
}
