{
    "asset" : {
        "generator" : "Khronos glTF Blender I/O v1.7.33",
        "version" : "2.0"
    },
    "scene" : 0,
    "scenes" : [
        {
            "name" : "Scene",
            "nodes" : [
                0,
                1,
                2
            ]
        }
    ],
    "nodes" : [
        {
            "mesh" : 0,
            "name" : "Cube",
            "rotation" : [
                -0.126493901014328,
                -0.004693092778325081,
                0.03677760437130928,
                0.9912742972373962
            ],
            "translation" : [
                0.4444557726383209,
                -0.04891878366470337,
                0.18524979054927826
            ]
        },
        {
            "mesh" : 1,
            "name" : "Sphere",
            "rotation" : [
                -0.03892844542860985,
                0.010969090275466442,
                -0.13295093178749084,
                0.9902970790863037
            ],
            "translation" : [
                0.3036516010761261,
                1.1332154273986816,
                -0.11991694569587708
            ]
        },
        {
            "mesh" : 2,
            "name" : "Cube.003",
            "rotation" : [
                -0.126493901014328,
                -0.004693092778325081,
                0.03677760437130928,
                0.9912742972373962
            ],
            "translation" : [
                0.34386390447616577,
                0.8974188566207886,
                -0.08922971785068512
            ]
        }
    ],
    "materials" : [
        {
            "doubleSided" : true,
            "emissiveFactor" : [
                1,
                1,
                1
            ],
            "emissiveTexture" : {
                "index" : 0
            },
            "name" : "Smoliv",
            "pbrMetallicRoughness" : {}
        }
    ],
    "meshes" : [
        {
            "name" : "Cube.001",
            "primitives" : [
                {
                    "attributes" : {
                        "POSITION" : 0,
                        "NORMAL" : 1,
                        "TEXCOORD_0" : 2
                    },
                    "indices" : 3,
                    "material" : 0
                }
            ]
        },
        {
            "name" : "Sphere",
            "primitives" : [
                {
                    "attributes" : {
                        "POSITION" : 4,
                        "NORMAL" : 5,
                        "TEXCOORD_0" : 6
                    },
                    "indices" : 7,
                    "material" : 0
                }
            ]
        },
        {
            "name" : "Cube.004",
            "primitives" : [
                {
                    "attributes" : {
                        "POSITION" : 8,
                        "NORMAL" : 9,
                        "TEXCOORD_0" : 10
                    },
                    "indices" : 11,
                    "material" : 0
                }
            ]
        }
    ],
    "textures" : [
        {
            "sampler" : 0,
            "source" : 0
        }
    ],
    "images" : [
        {
            "bufferView" : 4,
            "mimeType" : "image/png",
            "name" : "Smoliv Base Color"
        }
    ],
    "accessors" : [
        {
            "bufferView" : 0,
            "componentType" : 5126,
            "count" : 8118,
            "max" : [
                0.5629515647888184,
                1.0498758554458618,
                0.6365468502044678
            ],
            "min" : [
                -0.5725723505020142,
                -0.5777897834777832,
                -0.6364063024520874
            ],
            "type" : "VEC3"
        },
        {
            "bufferView" : 1,
            "componentType" : 5126,
            "count" : 8118,
            "type" : "VEC3"
        },
        {
            "bufferView" : 2,
            "componentType" : 5126,
            "count" : 8118,
            "type" : "VEC2"
        },
        {
            "bufferView" : 3,
            "componentType" : 5123,
            "count" : 47544,
            "type" : "SCALAR"
        },
        {
            "bufferView" : 5,
            "componentType" : 5126,
            "count" : 145,
            "max" : [
                0.3989129960536957,
                0.3899831771850586,
                0.3908928632736206
            ],
            "min" : [
                -0.39116790890693665,
                -0.37982112169265747,
                -0.3967379331588745
            ],
            "type" : "VEC3"
        },
        {
            "bufferView" : 6,
            "componentType" : 5126,
            "count" : 145,
            "type" : "VEC3"
        },
        {
            "bufferView" : 7,
            "componentType" : 5126,
            "count" : 145,
            "type" : "VEC2"
        },
        {
            "bufferView" : 8,
            "componentType" : 5123,
            "count" : 792,
            "type" : "SCALAR"
        },
        {
            "bufferView" : 9,
            "componentType" : 5126,
            "count" : 659,
            "max" : [
                0.6282185316085815,
                0.2227669358253479,
                0.8598304986953735
            ],
            "min" : [
                -0.6039576530456543,
                -0.31194931268692017,
                -0.9461678266525269
            ],
            "type" : "VEC3"
        },
        {
            "bufferView" : 10,
            "componentType" : 5126,
            "count" : 659,
            "type" : "VEC3"
        },
        {
            "bufferView" : 11,
            "componentType" : 5126,
            "count" : 659,
            "type" : "VEC2"
        },
        {
            "bufferView" : 12,
            "componentType" : 5123,
            "count" : 3408,
            "type" : "SCALAR"
        }
    ],
    "bufferViews" : [
        {
            "buffer" : 0,
            "byteLength" : 97416,
            "byteOffset" : 0
        },
        {
            "buffer" : 0,
            "byteLength" : 97416,
            "byteOffset" : 97416
        },
        {
            "buffer" : 0,
            "byteLength" : 64944,
            "byteOffset" : 194832
        },
        {
            "buffer" : 0,
            "byteLength" : 95088,
            "byteOffset" : 259776
        },
        {
            "buffer" : 0,
            "byteLength" : 447656,
            "byteOffset" : 354864
        },
        {
            "buffer" : 0,
            "byteLength" : 1740,
            "byteOffset" : 802520
        },
        {
            "buffer" : 0,
            "byteLength" : 1740,
            "byteOffset" : 804260
        },
        {
            "buffer" : 0,
            "byteLength" : 1160,
            "byteOffset" : 806000
        },
        {
            "buffer" : 0,
            "byteLength" : 1584,
            "byteOffset" : 807160
        },
        {
            "buffer" : 0,
            "byteLength" : 7908,
            "byteOffset" : 808744
        },
        {
            "buffer" : 0,
            "byteLength" : 7908,
            "byteOffset" : 816652
        },
        {
            "buffer" : 0,
            "byteLength" : 5272,
            "byteOffset" : 824560
        },
        {
            "buffer" : 0,
            "byteLength" : 6816,
            "byteOffset" : 829832
        }
    ],
    "samplers" : [
        {
            "magFilter" : 9729,
            "minFilter" : 9987
        }
    ],
    "buffers" : [
        {
            "byteLength" : 836648,
            "uri" : "data:application/octet-stream;base64,"
        }
    ]
}
