{
    "asset" : {
        "generator" : "Khronos glTF Blender I/O v1.7.33",
        "version" : "2.0"
    },
    "scene" : 0,
    "scenes" : [
        {
            "name" : "Scene",
            "nodes" : [
                0
            ]
        }
    ],
    "nodes" : [
        {
            "mesh" : 0,
            "name" : "Umbreon",
            "rotation" : [
                -0.80901700258255,
                0,
                0,
                0.5877852439880371
            ],
            "scale" : [
                0.02500000037252903,
                0.02500000037252903,
                0.02500000037252903
            ],
            "translation" : [
                0,
                0.24281303584575653,
                0.006171047687530518
            ]
        }
    ],
    "materials" : [
        {
            "doubleSided" : true,
            "name" : "Umbreon",
            "pbrMetallicRoughness" : {}
        },
        {
            "doubleSided" : true,
            "name" : "UmbreonEye",
            "pbrMetallicRoughness" : {}
        }
    ],
    "meshes" : [
        {
            "name" : "Umbreon",
            "primitives" : [
                {
                    "attributes" : {
                        "POSITION" : 0,
                        "NORMAL" : 1,
                        "TEXCOORD_0" : 2
                    },
                    "indices" : 3,
                    "material" : 0
                },
                {
                    "attributes" : {
                        "POSITION" : 4,
                        "NORMAL" : 5,
                        "TEXCOORD_0" : 6
                    },
                    "indices" : 7,
                    "material" : 1
                }
            ]
        }
    ],
    "accessors" : [
        {
            "bufferView" : 0,
            "componentType" : 5126,
            "count" : 613,
            "max" : [
                15.505250930786133,
                38.96017837524414,
                24.959434509277344
            ],
            "min" : [
                0,
                -25.064287185668945,
                -26.1793270111084
            ],
            "type" : "VEC3"
        },
        {
            "bufferView" : 1,
            "componentType" : 5126,
            "count" : 613,
            "type" : "VEC3"
        },
        {
            "bufferView" : 2,
            "componentType" : 5126,
            "count" : 613,
            "type" : "VEC2"
        },
        {
            "bufferView" : 3,
            "componentType" : 5123,
            "count" : 2685,
            "type" : "SCALAR"
        },
        {
            "bufferView" : 4,
            "componentType" : 5126,
            "count" : 21,
            "max" : [
                6.143293380737305,
                -22.194887161254883,
                5.507201194763184
            ],
            "min" : [
                2.6751561164855957,
                -24.30128288269043,
                1.9247610569000244
            ],
            "type" : "VEC3"
        },
        {
            "bufferView" : 5,
            "componentType" : 5126,
            "count" : 21,
            "type" : "VEC3"
        },
        {
            "bufferView" : 6,
            "componentType" : 5126,
            "count" : 21,
            "type" : "VEC2"
        },
        {
            "bufferView" : 7,
            "componentType" : 5123,
            "count" : 90,
            "type" : "SCALAR"
        }
    ],
    "bufferViews" : [
        {
            "buffer" : 0,
            "byteLength" : 7356,
            "byteOffset" : 0
        },
        {
            "buffer" : 0,
            "byteLength" : 7356,
            "byteOffset" : 7356
        },
        {
            "buffer" : 0,
            "byteLength" : 4904,
            "byteOffset" : 14712
        },
        {
            "buffer" : 0,
            "byteLength" : 5370,
            "byteOffset" : 19616
        },
        {
            "buffer" : 0,
            "byteLength" : 252,
            "byteOffset" : 24988
        },
        {
            "buffer" : 0,
            "byteLength" : 252,
            "byteOffset" : 25240
        },
        {
            "buffer" : 0,
            "byteLength" : 168,
            "byteOffset" : 25492
        },
        {
            "buffer" : 0,
            "byteLength" : 180,
            "byteOffset" : 25660
        }
    ],
    "buffers" : [
        {
            "byteLength" : 25840,
            "uri" : "data:application/octet-stream;base64,"
        }
    ]
}
